<svg width="158" height="157" viewBox="0 0 158 157" fill="none" xmlns="http://www.w3.org/2000/svg">
<g clip-path="url(#clip0_520_18)">
<rect x="0.28418" y="0.28418" width="56" height="18" fill="#02A37F"/>
<rect x="158.284" y="101.284" width="56" height="18" transform="rotate(90 158.284 101.284)" fill="#02A37F"/>
<path d="M56.5682 0.28399L156.977 100.693L156.977 157.262L3.0307e-05 0.284149L56.5682 0.28399Z" fill="#00F6BF"/>
<path d="M71.7882 35.4546L73.7483 37.4147L64.8388 46.3242L62.5605 44.0459L69.0772 37.5292L67.1298 36.371L68.5044 33.9018L71.7882 35.4546ZM75.1365 45.065C76.0105 45.9389 76.4814 46.919 76.5493 48.0051C76.6256 49.0997 76.1971 50.1137 75.2637 51.0471C74.2964 52.0144 73.2315 52.4514 72.069 52.3581C70.915 52.2562 69.8714 51.7386 68.938 50.8053C68.1573 50.0246 67.644 49.1803 67.3979 48.2724C67.1603 47.356 67.2452 46.4311 67.6525 45.4977L70.7708 46.3505C70.338 47.1566 70.4653 47.9033 71.1526 48.5906C71.4751 48.913 71.7933 49.087 72.1072 49.1124C72.4382 49.1379 72.7309 49.0233 72.9855 48.7688C73.2485 48.5057 73.363 48.213 73.3291 47.8906C73.3036 47.5766 73.1424 47.2711 72.8454 46.9742L69.9944 44.1231L75.5947 39.261L80.8386 44.5049L78.6621 46.6814L75.5183 43.5376L74.5001 44.4286L75.1365 45.065ZM79.7347 52.1579C79.0729 51.496 78.7377 50.7196 78.7292 49.8287C78.7292 48.9292 79.0474 48.1613 79.6838 47.5249C80.3202 46.8885 81.0839 46.5746 81.9748 46.5831C82.8658 46.5916 83.6422 46.9267 84.3041 47.5886C84.9659 48.2504 85.2968 49.0226 85.2968 49.9051C85.2968 50.7875 84.9786 51.547 84.3422 52.1834C83.6974 52.8282 82.9294 53.1464 82.0385 53.1379C81.156 53.1379 80.3881 52.8113 79.7347 52.1579ZM75.5854 54.2707L87.8042 53.7616L88.1861 55.1617L75.9673 55.6453L75.5854 54.2707ZM81.3384 50.5287C81.5336 50.7239 81.7542 50.8172 82.0003 50.8087C82.2633 50.8003 82.4882 50.7027 82.6749 50.516C82.8616 50.3293 82.9549 50.1087 82.9549 49.8541C82.9634 49.6081 82.87 49.3875 82.6749 49.1923C82.4882 49.0056 82.2676 48.9123 82.013 48.9123C81.767 48.9208 81.5506 49.0183 81.3639 49.205C81.1687 49.4002 81.0669 49.6208 81.0584 49.8669C81.0584 50.1214 81.1518 50.342 81.3384 50.5287ZM79.9511 61.7929C79.2808 61.1226 78.9414 60.342 78.9329 59.451C78.9329 58.5685 79.2511 57.8091 79.8875 57.1727C80.5323 56.5278 81.296 56.2054 82.1785 56.2054C83.0694 56.2139 83.8501 56.5533 84.5204 57.2236C85.1823 57.8855 85.509 58.6619 85.5005 59.5528C85.5005 60.4353 85.1823 61.1947 84.5459 61.8311C83.9095 62.4675 83.1458 62.7815 82.2549 62.773C81.3724 62.773 80.6045 62.4463 79.9511 61.7929ZM81.2748 59.5019C81.2748 59.7565 81.3681 59.9771 81.5548 60.1638C81.7415 60.3504 81.9579 60.4395 82.2039 60.431C82.467 60.4226 82.6876 60.3292 82.8658 60.151C83.061 59.9559 83.1585 59.731 83.1585 59.4765C83.167 59.2304 83.0779 59.014 82.8913 58.8273C82.7046 58.6407 82.484 58.5473 82.2294 58.5473C81.9833 58.5558 81.7627 58.6576 81.5676 58.8528C81.3809 59.0395 81.2833 59.2558 81.2748 59.5019ZM95.2603 74.4547C93.4699 74.4462 91.9214 73.7886 90.6146 72.4819C89.3079 71.1752 88.646 69.6224 88.6291 67.8235C88.6291 66.0246 89.2824 64.4718 90.5892 63.1651C91.8959 61.8583 93.4445 61.2092 95.2349 61.2177C97.0422 61.2262 98.5993 61.8838 99.906 63.1905C101.213 64.4973 101.866 66.0501 101.866 67.8489C101.883 69.6478 101.238 71.2006 99.9315 72.5074C98.6247 73.8141 97.0677 74.4632 95.2603 74.4547ZM91.7983 67.8617C91.8068 68.7696 92.1547 69.5672 92.842 70.2545C93.5293 70.9418 94.3269 71.2897 95.2349 71.2982C96.1513 71.2982 96.9616 70.9461 97.6659 70.2418C98.3702 69.5375 98.7181 68.7314 98.7096 67.8235C98.7096 66.9071 98.3659 66.1052 97.6786 65.4179C96.9913 64.7306 96.1894 64.3869 95.273 64.3869C94.3651 64.3785 93.559 64.7264 92.8547 65.4306C92.1505 66.1349 91.7983 66.9453 91.7983 67.8617ZM108.714 76.7844L105.52 73.5897L104.069 75.0407L107.2 78.1718L104.998 80.3737L101.867 77.2426L98.8119 80.2973L96.5336 78.019L105.443 69.1095L110.916 74.5825L108.714 76.7844ZM115.302 83.3721L112.107 80.1774L110.656 81.6284L113.787 84.7595L111.585 86.9614L108.454 83.8303L105.4 86.885L103.121 84.6067L112.031 75.6972L117.504 81.1702L115.302 83.3721ZM113.247 88.2416L115.946 84.7032L118.491 82.1576L121.088 84.7541L118.542 87.2997L115.004 89.998L113.247 88.2416ZM112.013 93.0909C111.504 93.0909 111.067 92.9085 110.702 92.5436C110.337 92.1787 110.15 91.7375 110.142 91.2199C110.142 90.7108 110.328 90.2695 110.702 89.8962C111.067 89.5313 111.504 89.3489 112.013 89.3489C112.539 89.3489 112.984 89.5313 113.349 89.8962C113.714 90.2611 113.892 90.7023 113.884 91.2199C113.892 91.7375 113.714 92.1787 113.349 92.5436C112.976 92.9169 112.53 93.0994 112.013 93.0909Z" fill="#071A23"/>
</g>
<defs>
<clipPath id="clip0_520_18">
<rect width="158" height="157" fill="white"/>
</clipPath>
</defs>
</svg>
