<svg width="32" height="32" viewBox="0 0 32 32" fill="none" xmlns="http://www.w3.org/2000/svg">
<rect y="32" width="32" height="32" rx="16" transform="rotate(-90 0 32)" fill="#0D2A38"/>
<rect x="0.5" y="31.5" width="31" height="31" rx="15.5" transform="rotate(-90 0.5 31.5)" stroke="#45B6F8" stroke-opacity="0.2"/>
<path d="M17.8321 11.2024L13 16.0021L17.8321 20.8017C17.9638 20.9321 18.1406 21.0034 18.3234 20.9999C18.5062 20.9964 18.6802 20.9183 18.8071 20.783C18.9339 20.6476 19.0033 20.466 18.9999 20.2781C18.9965 20.0902 18.9205 19.9114 18.7888 19.781L14.9823 16.0021L18.7888 12.219C18.9205 12.0886 18.9965 11.9098 18.9999 11.7219C19.0033 11.534 18.9339 11.3524 18.8071 11.217C18.6802 11.0817 18.5062 11.0036 18.3234 11.0001C18.1406 10.9966 17.9638 11.0679 17.8321 11.1983L17.8321 11.2024Z" fill="#00F6BF"/>
</svg>
