<svg width="75" height="76" viewBox="0 0 75 76" fill="none" xmlns="http://www.w3.org/2000/svg">
<path d="M63.2812 12.5889H11.7188C10.6309 12.5889 9.5877 13.021 8.81851 13.7902C8.04932 14.5594 7.61719 15.6026 7.61719 16.6904V58.8779C7.61719 59.9657 8.04932 61.009 8.81851 61.7782C9.5877 62.5474 10.6309 62.9795 11.7188 62.9795H15.6416C15.9742 62.9794 16.3 62.8849 16.5811 62.707C16.8622 62.5292 17.087 62.2752 17.2295 61.9746C18.4165 59.4677 20.2909 57.3494 22.6346 55.866C24.9783 54.3826 27.695 53.595 30.4688 53.595C33.2425 53.595 35.9592 54.3826 38.3029 55.866C40.6466 57.3494 42.521 59.4677 43.708 61.9746C43.8505 62.2752 44.0753 62.5292 44.3564 62.707C44.6375 62.8849 44.9633 62.9794 45.2959 62.9795H63.2812C64.3691 62.9795 65.4123 62.5474 66.1815 61.7782C66.9507 61.009 67.3828 59.9657 67.3828 58.8779V16.6904C67.3828 15.6026 66.9507 14.5594 66.1815 13.7902C65.4123 13.021 64.3691 12.5889 63.2812 12.5889ZM22.8516 42.4717C22.8516 40.9651 23.2983 39.4924 24.1353 38.2398C24.9723 36.9872 26.1619 36.0108 27.5538 35.4343C28.9456 34.8578 30.4772 34.7069 31.9548 35.0009C33.4324 35.2948 34.7896 36.0202 35.8549 37.0855C36.9202 38.1508 37.6457 39.5081 37.9396 40.9856C38.2335 42.4632 38.0826 43.9948 37.5061 45.3867C36.9296 46.7785 35.9533 47.9682 34.7006 48.8051C33.448 49.6421 31.9753 50.0889 30.4688 50.0889C28.4485 50.0889 26.5111 49.2863 25.0826 47.8578C23.6541 46.4293 22.8516 44.4919 22.8516 42.4717ZM63.8672 58.8779C63.8672 59.0333 63.8055 59.1824 63.6956 59.2923C63.5857 59.4021 63.4366 59.4639 63.2812 59.4639H46.3682C44.3185 55.7849 41.0604 52.9273 37.1455 51.375C39.0155 49.9735 40.397 48.019 41.0944 45.7886C41.7917 43.5582 41.7695 41.1649 41.0308 38.9478C40.2922 36.7307 38.8746 34.8022 36.979 33.4357C35.0833 32.0691 32.8056 31.3337 30.4688 31.3337C28.1319 31.3337 25.8542 32.0691 23.9585 33.4357C22.0629 34.8022 20.6453 36.7307 19.9067 38.9478C19.168 41.1649 19.1458 43.5582 19.8432 45.7886C20.5405 48.019 21.922 49.9735 23.792 51.375C19.8771 52.9273 16.619 55.7849 14.5693 59.4639H11.7188C11.5633 59.4639 11.4143 59.4021 11.3044 59.2923C11.1945 59.1824 11.1328 59.0333 11.1328 58.8779V16.6904C11.1328 16.535 11.1945 16.386 11.3044 16.2761C11.4143 16.1662 11.5633 16.1045 11.7188 16.1045H63.2812C63.4366 16.1045 63.5857 16.1662 63.6956 16.2761C63.8055 16.386 63.8672 16.535 63.8672 16.6904V58.8779ZM58.0078 23.7217V51.8467C58.0078 52.3129 57.8226 52.76 57.493 53.0896C57.1633 53.4193 56.7162 53.6045 56.25 53.6045H51.5625C51.0963 53.6045 50.6492 53.4193 50.3195 53.0896C49.9899 52.76 49.8047 52.3129 49.8047 51.8467C49.8047 51.3805 49.9899 50.9334 50.3195 50.6037C50.6492 50.2741 51.0963 50.0889 51.5625 50.0889H54.4922V25.4795H20.5078V28.4092C20.5078 28.8754 20.3226 29.3225 19.993 29.6521C19.6633 29.9818 19.2162 30.167 18.75 30.167C18.2838 30.167 17.8367 29.9818 17.507 29.6521C17.1774 29.3225 16.9922 28.8754 16.9922 28.4092V23.7217C16.9922 23.2555 17.1774 22.8084 17.507 22.4787C17.8367 22.1491 18.2838 21.9639 18.75 21.9639H56.25C56.7162 21.9639 57.1633 22.1491 57.493 22.4787C57.8226 22.8084 58.0078 23.2555 58.0078 23.7217Z" fill="#00F6BF"/>
</svg>
