<svg width="33" height="33" viewBox="0 0 33 33" fill="none" xmlns="http://www.w3.org/2000/svg">
<path d="M25.0334 31.6669L24.3379 32.4754C24.5405 32.649 24.8008 32.7404 25.0675 32.7314L25.0334 31.6669ZM22.7592 28.0146C22.5838 27.7926 22.3274 27.6493 22.0463 27.6163C21.7653 27.5833 21.4826 27.6632 21.2606 27.8386C21.0385 28.014 20.8952 28.2705 20.8622 28.5515C20.8292 28.8326 20.9092 29.1152 21.0846 29.3373L22.7592 28.0146ZM23.6083 27.14L23.2371 26.1416C23.2228 26.1463 23.2086 26.1513 23.1944 26.1565L23.6083 27.14ZM19.9006 28.2408L19.7214 27.1869L19.7043 27.189L19.9006 28.2386V28.2408ZM13.2787 28.2152L13.076 29.2605L13.0824 29.2626L13.2787 28.2152ZM7.65308 26.2461L7.06002 27.1314C7.08284 27.1474 7.10633 27.1623 7.13042 27.1762L7.65308 26.2461ZM7.42268 26.1181L8.01362 25.2306C7.97666 25.2062 7.93818 25.1841 7.89842 25.1645L7.42268 26.1181ZM7.32028 26.0413L8.07335 25.2861C8.00364 25.2166 7.92467 25.157 7.83868 25.109L7.32028 26.0413ZM11.9155 29.284C12.0909 29.0619 12.1709 28.7793 12.1379 28.4982C12.1049 28.2171 11.9616 27.9607 11.7395 27.7853C11.5174 27.6099 11.2348 27.5299 10.9537 27.5629C10.6726 27.5959 10.4162 27.7392 10.2408 27.9613L11.9155 29.284ZM7.96668 31.6669L7.93255 32.7336C8.20427 32.7423 8.46906 32.6469 8.67282 32.4669L7.96668 31.6669ZM1.56668 26.8605H0.500016C0.499704 26.9177 0.503985 26.9747 0.512816 27.0312L1.56668 26.8605ZM5.24882 8.75278L4.60882 7.89945C4.44595 8.02193 4.32158 8.1885 4.25042 8.37945L5.24882 8.75278ZM12.4339 6.06691L13.4963 5.96665C13.4718 5.70619 13.3524 5.46383 13.1608 5.28565C12.9693 5.10747 12.7189 5.0059 12.4574 5.00025L12.4339 6.06691ZM11.6275 8.85305C11.6544 9.13481 11.7921 9.39436 12.0103 9.5746C12.2285 9.75483 12.5095 9.84099 12.7912 9.81411C13.073 9.78724 13.3325 9.64953 13.5128 9.43129C13.693 9.21305 13.7792 8.93215 13.7523 8.65038L11.6275 8.85305ZM19.1496 8.71865C19.1137 8.99928 19.1907 9.28269 19.3638 9.50654C19.5368 9.73038 19.7917 9.87632 20.0723 9.91225C20.3529 9.94817 20.6363 9.87115 20.8602 9.69812C21.084 9.52508 21.23 9.27021 21.2659 8.98958L19.1496 8.71865ZM20.5662 6.06691L20.5427 5.00025C20.2875 5.00581 20.0427 5.10273 19.8528 5.27341C19.663 5.44408 19.5406 5.67718 19.508 5.93038L20.5662 6.06691ZM27.7512 8.75278L28.7496 8.37945C28.6785 8.1885 28.5541 8.02193 28.3912 7.89945L27.7512 8.75278ZM31.4334 26.8605L32.4872 27.0312C32.4961 26.9747 32.5004 26.9177 32.5 26.8605H31.4334ZM14.3262 21.6402L13.2595 21.6232V21.6402H14.3262ZM25.0334 31.6669L25.7288 30.8584L25.7246 30.8541C25.6923 30.8282 25.661 30.8012 25.6307 30.773C25.2438 30.4382 24.8626 30.0968 24.4872 29.749C23.7939 29.1133 23.0792 28.4221 22.7592 28.0146L21.0846 29.3373C21.5283 29.9005 22.371 30.7026 23.043 31.3213C23.4595 31.7039 23.8812 32.0809 24.308 32.452L24.3294 32.469L24.3358 32.4733L25.0334 31.6669ZM25.9635 24.7421C24.9822 25.3885 24.0563 25.8365 23.2371 26.1416L23.9795 28.1405C25.0897 27.7226 26.1489 27.1801 27.1368 26.5234L25.9635 24.7421ZM23.1966 26.1565C22.0817 26.6332 20.9156 26.9797 19.7214 27.189L20.0798 29.2925C21.4344 29.0556 22.7573 28.6633 24.0222 28.1234L23.1966 26.1565ZM19.7043 27.1912C17.6443 27.5701 15.5317 27.5614 13.475 27.1656L13.0824 29.2626C15.3986 29.707 17.7774 29.7156 20.0968 29.2882L19.7043 27.1912ZM13.4814 27.1677C12.2609 26.9288 11.0648 26.5789 9.90802 26.1224L9.13148 28.1085C10.2238 28.5352 11.5422 28.9661 13.076 29.2605L13.4814 27.1677ZM9.90802 26.1224C9.31211 25.8936 8.73261 25.6242 8.17362 25.316L7.13042 27.1762C7.82588 27.5666 8.51282 27.8674 9.13148 28.1085L9.90802 26.1224ZM8.24402 25.3586C8.17069 25.3094 8.09366 25.268 8.01362 25.2306C7.97095 25.2093 7.99015 25.2136 8.01362 25.2306L6.82962 27.0056C6.90322 27.0544 6.98022 27.0979 7.06002 27.1357C7.10482 27.157 7.08562 27.1506 7.06002 27.1314L8.24615 25.3608L8.24402 25.3586ZM7.89842 25.1645C7.96267 25.1966 8.02165 25.2384 8.07335 25.2882L6.56508 26.7965C6.61415 26.8456 6.73788 26.9672 6.94482 27.0738L7.89842 25.1645ZM7.83868 25.109C7.63548 24.9965 7.43625 24.877 7.24135 24.7506L7.21788 24.7336C7.21717 24.7336 7.21859 24.7336 7.21788 24.7336L6.60348 25.6082L5.99335 26.4808L5.99548 26.4829L5.99975 26.4872L6.01468 26.4957L6.05948 26.5256L6.21948 26.6301C6.35602 26.7154 6.55228 26.8349 6.80188 26.9736L7.83868 25.109ZM10.2408 27.9634C9.91655 28.3752 9.19762 29.0834 8.50642 29.732C8.12804 30.0857 7.74543 30.4349 7.35868 30.7794L7.28615 30.8456L7.26482 30.8626L7.26268 30.8669H7.26055L7.96668 31.6669L8.67282 32.4669L8.67495 32.4648L8.68135 32.4605L8.70268 32.4413L8.77948 32.373C9.17771 32.0157 9.5724 31.6545 9.96348 31.2893C10.6355 30.6578 11.4739 29.845 11.9155 29.284L10.2408 27.9613V27.9634ZM8.00082 30.6002C5.51335 30.5213 4.20775 29.4888 3.49948 28.5522C3.10553 28.0292 2.81582 27.4353 2.64615 26.8029C2.63587 26.7633 2.62662 26.7235 2.61842 26.6834V26.6877L1.56668 26.8605C0.512816 27.0312 0.512816 27.029 0.514949 27.0312V27.044C0.530551 27.1352 0.550484 27.2256 0.574683 27.3149C0.813796 28.2278 1.22905 29.0851 1.79708 29.8386C2.87442 31.2616 4.76882 32.6333 7.93255 32.7336L8.00082 30.6002ZM2.63335 26.8605C2.63335 22.8776 3.52935 18.4552 4.44028 14.9906C4.92361 13.1558 5.47582 11.3397 6.09575 9.54638C6.1426 9.41383 6.19024 9.28156 6.23868 9.14958L6.24722 9.12825L5.24882 8.75278L4.24828 8.37945L4.24615 8.38798L4.23762 8.41145C4.18481 8.55309 4.13361 8.69532 4.08402 8.83811C3.44482 10.6855 2.87553 12.5563 2.37735 14.4466C1.44508 17.9773 0.500016 22.6066 0.500016 26.8605H2.63335ZM5.88882 9.60611C7.59548 8.32611 9.25308 7.70745 10.4755 7.40878C11.0774 7.26202 11.6916 7.17062 12.3102 7.13571C12.345 7.13443 12.3798 7.13371 12.4147 7.13358L12.4339 6.06691L12.4574 5.00025H12.4467C12.4268 4.99992 12.4069 4.99992 12.387 5.00025H12.2419C12.0709 5.00645 11.9002 5.01784 11.7299 5.03438C11.1367 5.09186 10.5485 5.19239 9.96988 5.33518C8.02821 5.81742 6.20446 6.68829 4.60882 7.89518L5.88882 9.60185V9.60611ZM11.3715 6.16718L11.6275 8.85305L13.7523 8.65038L13.4963 5.96665L11.3715 6.16718ZM21.2659 8.98958L21.6243 6.20345L19.508 5.93038L19.1496 8.71865L21.2659 8.98958ZM20.5662 6.06691L20.5875 7.13358H20.5854C20.6202 7.13186 20.6551 7.13186 20.6899 7.13358C20.771 7.13785 20.9032 7.14425 21.0718 7.16131C21.4131 7.19118 21.9123 7.26158 22.5246 7.41091C24.1861 7.82523 25.7464 8.572 27.1112 9.60611L28.3912 7.89945C26.7956 6.6925 24.9718 5.82163 23.0302 5.33945C22.4516 5.19591 21.8634 5.09467 21.2702 5.03651C21.0311 5.01427 20.7913 5.00217 20.5512 5.00025H20.5427L20.5662 6.06691ZM27.7512 8.75278L26.7507 9.12398L26.7528 9.13038L26.7614 9.14958L26.7891 9.22851L26.9022 9.54638C27.5227 11.3397 28.0757 13.1558 28.5598 14.9906C29.4728 18.4552 30.3667 22.8776 30.3667 26.8605H32.5C32.5 22.6066 31.5528 17.9773 30.6227 14.4466C30.1244 12.5564 29.5551 10.6855 28.916 8.83811C28.8761 8.72554 28.8356 8.61318 28.7944 8.50105L28.7624 8.41145L28.7539 8.39011L28.7518 8.38158L27.7491 8.75278H27.7512ZM31.4334 26.8605L30.3816 26.6898V26.6834L30.3774 26.7005L30.356 26.8008C30.3304 26.8968 30.292 27.0418 30.2259 27.221C30.0936 27.5837 29.8696 28.0658 29.5006 28.5522C28.7923 29.4888 27.4867 30.5213 24.9992 30.6002L25.0675 32.7336C28.2312 32.6333 30.1235 31.2616 31.203 29.8408C31.7712 29.0866 32.1864 28.2285 32.4254 27.3149C32.4463 27.2316 32.4648 27.1476 32.4808 27.0632L32.4851 27.0418V27.0333C32.4851 27.0312 32.4851 27.029 31.4334 26.8605ZM11.7192 17.7362C9.58162 17.7362 8.04348 19.5858 8.04348 21.6402H10.1768C10.1768 20.5778 10.9384 19.8696 11.7192 19.8696V17.7362ZM8.04348 21.6402C8.04348 23.7032 9.61362 25.5442 11.7192 25.5442V23.4109C10.9576 23.4109 10.1768 22.6984 10.1768 21.6402H8.04348ZM11.7192 25.5442C13.8526 25.5442 15.3928 23.6968 15.3928 21.6402H13.2595C13.2595 22.7069 12.4979 23.4109 11.7192 23.4109V25.5442ZM15.3907 21.6616C15.4248 19.5752 13.8398 17.7362 11.7192 17.7362L11.7171 19.8717C12.5107 19.8717 13.2744 20.5928 13.2574 21.6253L15.3907 21.6616ZM21.0504 17.7362C18.9128 17.7384 17.3747 19.588 17.3747 21.6424H19.508C19.508 20.58 20.2696 19.8717 21.0504 19.8717V17.7384V17.7362ZM17.3747 21.6445C17.3747 23.7074 18.9448 25.5485 21.0504 25.5485V23.4152C20.2888 23.4152 19.508 22.7026 19.508 21.6445H17.3747ZM21.0504 25.5485C23.1838 25.5485 24.724 23.701 24.724 21.6445H22.5907C22.5907 22.7112 21.8291 23.4152 21.0504 23.4152V25.5485ZM24.724 21.6445C24.724 19.5901 23.1859 17.7384 21.0504 17.7384V19.8717C21.8291 19.8717 22.5907 20.5821 22.5907 21.6445H24.724ZM8.47868 12.3389C11.5571 10.66 14.0659 9.87705 16.5064 9.87491C18.9491 9.87491 21.4515 10.6536 24.5235 12.3368L25.5475 10.468C22.3006 8.68665 19.4355 7.73945 16.5064 7.74158C13.5774 7.74158 10.7102 8.69091 7.45895 10.4658L8.47868 12.3389Z" fill="#00F6BF"/>
</svg>
