<svg width="32" height="32" viewBox="0 0 32 32" fill="none" xmlns="http://www.w3.org/2000/svg">
<g clip-path="url(#clip0_455_80)">
<path d="M16.0016 11.2C14.7286 11.2 13.5077 11.7057 12.6075 12.6059C11.7073 13.5061 11.2016 14.727 11.2016 16C11.2016 17.273 11.7073 18.4939 12.6075 19.3941C13.5077 20.2943 14.7286 20.8 16.0016 20.8C17.2746 20.8 18.4955 20.2943 19.3957 19.3941C20.2959 18.4939 20.8016 17.273 20.8016 16C20.8016 14.727 20.2959 13.5061 19.3957 12.6059C18.4955 11.7057 17.2746 11.2 16.0016 11.2ZM16.0016 8C18.1233 8 20.1582 8.84285 21.6585 10.3431C23.1587 11.8434 24.0016 13.8783 24.0016 16C24.0016 18.1217 23.1587 20.1566 21.6585 21.6569C20.1582 23.1571 18.1233 24 16.0016 24C13.8799 24 11.845 23.1571 10.3447 21.6569C8.84446 20.1566 8.0016 18.1217 8.0016 16C8.0016 13.8783 8.84446 11.8434 10.3447 10.3431C11.845 8.84285 13.8799 8 16.0016 8ZM26.4016 7.6C26.4016 8.13043 26.1909 8.63914 25.8158 9.01421C25.4407 9.38929 24.932 9.6 24.4016 9.6C23.8712 9.6 23.3625 9.38929 22.9874 9.01421C22.6123 8.63914 22.4016 8.13043 22.4016 7.6C22.4016 7.06957 22.6123 6.56086 22.9874 6.18579C23.3625 5.81071 23.8712 5.6 24.4016 5.6C24.932 5.6 25.4407 5.81071 25.8158 6.18579C26.1909 6.56086 26.4016 7.06957 26.4016 7.6ZM16.0016 3.2C12.0432 3.2 11.3968 3.2112 9.5552 3.2928C8.3008 3.352 7.4592 3.52 6.6784 3.824C6.02499 4.0639 5.43426 4.44842 4.9504 4.9488C4.44961 5.43264 4.06456 6.02333 3.824 6.6768C3.52 7.4608 3.352 8.3008 3.2944 9.5536C3.2112 11.32 3.2 11.9376 3.2 16C3.2 19.96 3.2112 20.6048 3.2928 22.4464C3.352 23.6992 3.52 24.5424 3.8224 25.3216C4.0944 26.0176 4.4144 26.5184 4.9456 27.0496C5.4848 27.5872 5.9856 27.9088 6.6736 28.1744C7.464 28.48 8.3056 28.6496 9.5536 28.7072C11.32 28.7904 11.9376 28.8 16 28.8C19.96 28.8 20.6048 28.7888 22.4464 28.7072C23.6976 28.648 24.5392 28.48 25.3216 28.1776C25.9744 27.9365 26.5649 27.5522 27.0496 27.0528C27.5888 26.5152 27.9104 26.0144 28.176 25.3248C28.48 24.5376 28.6496 23.696 28.7072 22.4448C28.7904 20.68 28.8 20.0608 28.8 16C28.8 12.0416 28.7888 11.3952 28.7072 9.5536C28.648 8.3024 28.4784 7.4576 28.176 6.6768C27.9348 6.02403 27.5505 5.43357 27.0512 4.9488C26.5676 4.44775 25.9768 4.06267 25.3232 3.8224C24.5392 3.5184 23.6976 3.3504 22.4464 3.2928C20.6816 3.2096 20.064 3.2 16 3.2M16 0C20.3472 0 20.8896 0.0159999 22.5968 0.0959999C24.2992 0.176 25.4608 0.4432 26.48 0.84C27.536 1.2464 28.4256 1.7968 29.3152 2.6848C30.1288 3.48463 30.7583 4.45214 31.16 5.52C31.5552 6.5392 31.824 7.7008 31.904 9.4048C31.9792 11.1104 32 11.6528 32 16C32 20.3472 31.984 20.8896 31.904 22.5952C31.824 24.2992 31.5552 25.4592 31.16 26.48C30.7594 27.5484 30.1298 28.5162 29.3152 29.3152C28.5151 30.1285 27.5477 30.758 26.48 31.16C25.4608 31.5552 24.2992 31.824 22.5968 31.904C20.8896 31.9792 20.3472 32 16 32C11.6528 32 11.1104 31.984 9.4032 31.904C7.7008 31.824 6.5408 31.5552 5.52 31.16C4.45172 30.7592 3.48404 30.1295 2.6848 29.3152C1.87109 28.5155 1.24154 27.5479 0.84 26.48C0.4432 25.4608 0.176 24.2992 0.0959999 22.5952C0.0191999 20.8896 0 20.3472 0 16C0 11.6528 0.0159999 11.1104 0.0959999 9.4048C0.176 7.7008 0.4432 6.5408 0.84 5.52C1.24038 4.45149 1.87009 3.48371 2.6848 2.6848C3.48427 1.87077 4.45189 1.24117 5.52 0.84C6.5392 0.4432 7.6992 0.176 9.4032 0.0959999C11.112 0.0207999 11.6544 0 16.0016 0" fill="#00F6BF"/>
</g>
<defs>
<clipPath id="clip0_455_80">
<rect width="32" height="32" fill="white"/>
</clipPath>
</defs>
</svg>
