<svg width="50" height="50" viewBox="0 0 50 50" fill="none" xmlns="http://www.w3.org/2000/svg">
<path d="M27.9785 20.5566C26.8506 20.5566 25.9766 21.4307 25.9766 22.5098C25.9766 23.5889 26.8506 24.4629 27.9785 24.4629C29.0088 24.4629 29.8828 23.5889 29.8828 22.5098C29.8828 21.4307 29.0088 20.5566 27.9785 20.5566ZM14.3066 20.5566C13.1787 20.5566 12.3047 21.4307 12.3047 22.5098C12.3047 23.5889 13.1787 24.4629 14.3066 24.4629C15.3369 24.4629 16.2109 23.5889 16.2109 22.5098C16.2109 21.4307 15.3369 20.5566 14.3066 20.5566Z" fill="#00F6BF"/>
<path d="M43.6523 16.8457C41.3037 13.623 38.0224 11.4697 34.4238 10.498V10.5029C33.5888 9.57518 32.6464 8.72069 31.5918 7.95897C23.5986 2.14842 12.3779 3.92089 6.54293 11.914C1.84078 18.4082 2.04097 27.1435 6.8359 33.3496L6.87496 39.8242C6.87496 39.9805 6.89937 40.1367 6.9482 40.2832C7.20699 41.1084 8.0859 41.5625 8.90621 41.3037L15.0878 39.3555C16.7236 39.9365 18.413 40.2685 20.0927 40.3613L20.0683 40.3808C24.4189 43.5498 30.122 44.5019 35.3515 42.7734L41.5576 44.7949C41.7138 44.8437 41.875 44.873 42.041 44.873C42.9052 44.873 43.6035 44.1748 43.6035 43.3105V36.7676C47.9052 30.9277 48.0175 22.8564 43.6523 16.8457ZM15.7714 35.8887L15.1855 35.6445L10.3515 37.1582L10.3027 32.0801L9.91207 31.6406C5.78121 26.6015 5.50777 19.3408 9.37496 14.0137C14.082 7.55858 23.1054 6.1328 29.541 10.791C35.9961 15.4834 37.4267 24.4922 32.7636 30.9082C28.8525 36.2744 21.8505 38.2568 15.7714 35.8887ZM40.4296 35.0586L40.039 35.5469L40.0878 40.625L35.3027 39.0137L34.7168 39.2578C31.9824 40.2734 29.0673 40.3564 26.3671 39.5996L26.3574 39.5947C29.9658 38.4863 33.2373 36.2402 35.5957 33.0078C39.3261 27.8662 39.9316 21.4062 37.7636 15.8984L37.7929 15.918C38.916 16.7236 39.9462 17.7295 40.8203 18.9453C44.3652 23.8086 44.165 30.4297 40.4296 35.0586Z" fill="#00F6BF"/>
<path d="M21.1426 20.5566C20.0146 20.5566 19.1406 21.4307 19.1406 22.5098C19.1406 23.5889 20.0146 24.4629 21.1426 24.4629C22.1729 24.4629 23.0469 23.5889 23.0469 22.5098C23.0469 21.4307 22.1729 20.5566 21.1426 20.5566Z" fill="#00F6BF"/>
</svg>
