<svg width="33" height="32" viewBox="0 0 33 32" fill="none" xmlns="http://www.w3.org/2000/svg">
<g clip-path="url(#clip0_485_84)">
<path d="M21.8334 4C22.8537 3.99994 23.8354 4.38977 24.5778 5.08971C25.3201 5.78966 25.7669 6.74681 25.8267 7.76533L25.8334 8V21.3333H26.8334C27.6961 21.3333 28.4067 21.9893 28.4921 22.8293L28.5001 23V25.3333C28.5001 26.3536 28.1103 27.3354 27.4104 28.0777C26.7104 28.82 25.7533 29.2668 24.7347 29.3267L24.5001 29.3333H11.1667C10.1465 29.3334 9.16473 28.9436 8.4224 28.2436C7.68007 27.5437 7.23327 26.5865 7.17342 25.568L7.16675 25.3333V12H4.83341C4.4208 12.0002 4.02279 11.8473 3.71639 11.571C3.41 11.2946 3.217 10.9144 3.17475 10.504L3.16675 10.3333V8C3.16669 6.97972 3.55651 5.99798 4.25646 5.25565C4.9564 4.51332 5.91356 4.06652 6.93208 4.00667L7.16675 4H21.8334ZM21.8334 6.66667H9.83342V25.3333C9.83342 25.687 9.97389 26.0261 10.2239 26.2761C10.474 26.5262 10.8131 26.6667 11.1667 26.6667C11.5204 26.6667 11.8595 26.5262 12.1096 26.2761C12.3596 26.0261 12.5001 25.687 12.5001 25.3333V23C12.5001 22.08 13.2467 21.3333 14.1667 21.3333H23.1667V8C23.1667 7.64638 23.0263 7.30724 22.7762 7.05719C22.5262 6.80714 22.187 6.66667 21.8334 6.66667ZM25.8334 24H15.1667V25.3333C15.1667 25.8 15.0867 26.2493 14.9401 26.6667H24.5001C24.8537 26.6667 25.1928 26.5262 25.4429 26.2761C25.6929 26.0261 25.8334 25.687 25.8334 25.3333V24ZM16.5001 16C16.8537 16 17.1928 16.1405 17.4429 16.3905C17.6929 16.6406 17.8334 16.9797 17.8334 17.3333C17.8334 17.687 17.6929 18.0261 17.4429 18.2761C17.1928 18.5262 16.8537 18.6667 16.5001 18.6667H13.8334C13.4798 18.6667 13.1407 18.5262 12.8906 18.2761C12.6406 18.0261 12.5001 17.687 12.5001 17.3333C12.5001 16.9797 12.6406 16.6406 12.8906 16.3905C13.1407 16.1405 13.4798 16 13.8334 16H16.5001ZM19.1667 10.6667C19.5204 10.6667 19.8595 10.8071 20.1096 11.0572C20.3596 11.3072 20.5001 11.6464 20.5001 12C20.5001 12.3536 20.3596 12.6928 20.1096 12.9428C19.8595 13.1929 19.5204 13.3333 19.1667 13.3333H13.8334C13.4798 13.3333 13.1407 13.1929 12.8906 12.9428C12.6406 12.6928 12.5001 12.3536 12.5001 12C12.5001 11.6464 12.6406 11.3072 12.8906 11.0572C13.1407 10.8071 13.4798 10.6667 13.8334 10.6667H19.1667ZM7.16675 6.66667C6.84017 6.66671 6.52497 6.78661 6.28092 7.00362C6.03687 7.22063 5.88096 7.51967 5.84275 7.844L5.83341 8V9.33333H7.16675V6.66667Z" fill="#00F6BF"/>
</g>
<defs>
<clipPath id="clip0_485_84">
<rect width="32" height="32" fill="white" transform="translate(0.5)"/>
</clipPath>
</defs>
</svg>
