<svg width="33" height="32" viewBox="0 0 33 32" fill="none" xmlns="http://www.w3.org/2000/svg">
<path d="M14.1573 21.752L8.5 16.0934L10.3853 14.208L14.1573 17.9787L21.6987 10.436L23.5853 12.3227L14.1573 21.752Z" fill="#00F6BF"/>
<path fill-rule="evenodd" clip-rule="evenodd" d="M1.8335 15.9999C1.8335 7.89992 8.40016 1.33325 16.5002 1.33325C24.6002 1.33325 31.1668 7.89992 31.1668 15.9999C31.1668 24.0999 24.6002 30.6666 16.5002 30.6666C8.40016 30.6666 1.8335 24.0999 1.8335 15.9999ZM16.5002 27.9999C14.9243 27.9999 13.3639 27.6895 11.908 27.0865C10.4521 26.4834 9.12918 25.5995 8.01488 24.4852C6.90058 23.3709 6.01666 22.048 5.41361 20.5921C4.81055 19.1362 4.50016 17.5758 4.50016 15.9999C4.50016 14.4241 4.81055 12.8636 5.41361 11.4077C6.01666 9.95181 6.90058 8.62894 8.01488 7.51464C9.12918 6.40033 10.4521 5.51642 11.908 4.91336C13.3639 4.31031 14.9243 3.99992 16.5002 3.99992C19.6828 3.99992 22.735 5.2642 24.9854 7.51464C27.2359 9.76507 28.5002 12.8173 28.5002 15.9999C28.5002 19.1825 27.2359 22.2348 24.9854 24.4852C22.735 26.7356 19.6828 27.9999 16.5002 27.9999Z" fill="#00F6BF"/>
</svg>
