<svg width="32" height="32" viewBox="0 0 32 32" fill="none" xmlns="http://www.w3.org/2000/svg">
<path d="M16.7947 2.72399C18.2281 2.82533 19.5401 3.09866 20.4521 3.99866C21.3827 4.91599 21.6787 6.25999 21.6787 7.91999C21.6787 8.496 21.6027 9.19333 21.5227 9.83733C21.4881 10.104 21.4547 10.36 21.4214 10.6L21.3467 11.172H24.0801C25.0827 11.172 26.0081 11.316 26.7948 11.7107C27.6108 12.1187 28.2107 12.76 28.6014 13.6187C29.3361 15.2373 29.3241 17.6293 28.8987 20.8107L28.8307 21.3307C28.6521 22.6773 28.5001 23.8267 28.3027 24.7707C28.0814 25.8307 27.7774 26.7653 27.2147 27.504C26.0281 29.0613 24.0214 29.3333 21.1041 29.3333C17.9961 29.3333 15.6641 28.776 13.7121 28.2347L12.9094 28.008C11.5454 27.6213 10.4401 27.3067 9.32275 27.2267C9.26644 27.8036 8.9974 28.3389 8.56804 28.7283C8.13868 29.1177 7.57974 29.3334 7.00008 29.3333H5.00008C4.38124 29.3333 3.78775 29.0875 3.35017 28.6499C2.91258 28.2123 2.66675 27.6188 2.66675 27V13C2.66675 11.712 3.71208 10.6667 5.00008 10.6667H7.00008C7.5919 10.6667 8.16159 10.8916 8.59382 11.2959C9.02605 11.7001 9.28851 12.2535 9.32808 12.844C9.56781 12.8201 9.80275 12.7613 10.0254 12.6693C11.3067 12.116 13.7241 10.624 13.7241 7.06933V5.66533C13.7241 4.03866 15.0601 2.60133 16.7947 2.72399ZM9.33342 25.224C10.7454 25.3093 12.1054 25.6973 13.4907 26.0933L14.2481 26.3067C16.1227 26.8267 18.2561 27.3333 21.1041 27.3333C24.1401 27.3333 25.1094 26.968 25.6241 26.292C25.9121 25.9147 26.1414 25.3347 26.3441 24.3613C26.5254 23.4947 26.6667 22.428 26.8494 21.0587L26.9161 20.5467C27.3427 17.3467 27.2534 15.4867 26.7801 14.4467C26.5667 13.9773 26.2801 13.6893 25.9001 13.4987C25.4934 13.2947 24.9134 13.172 24.0801 13.172H20.9201C20.0121 13.172 19.1961 12.412 19.3054 11.4013C19.3401 11.0773 19.3921 10.6853 19.4454 10.2893L19.5387 9.58666C19.6187 8.94399 19.6787 8.35866 19.6787 7.91999C19.6787 6.41999 19.3947 5.76399 19.0481 5.42266C18.6814 5.06266 18.0161 4.81599 16.6547 4.71866C16.1867 4.68666 15.7241 5.08399 15.7241 5.66533V7.06933C15.7241 11.8027 12.4067 13.82 10.8174 14.5053C10.3214 14.7187 9.81208 14.8147 9.33342 14.852V25.224ZM5.00008 27.3333H7.00008C7.08849 27.3333 7.17327 27.2982 7.23578 27.2357C7.2983 27.1732 7.33342 27.0884 7.33342 27V13C7.33342 12.9116 7.2983 12.8268 7.23578 12.7643C7.17327 12.7018 7.08849 12.6667 7.00008 12.6667H5.00008C4.91168 12.6667 4.82689 12.7018 4.76438 12.7643C4.70187 12.8268 4.66675 12.9116 4.66675 13V27C4.66675 27.184 4.81608 27.3333 5.00008 27.3333Z" fill="white"/>
</svg>
