<svg width="34" height="25" viewBox="0 0 34 25" fill="none" xmlns="http://www.w3.org/2000/svg">
<path d="M1.5 18.8696V7.13043C1.5 6.30019 1.82778 5.50395 2.41122 4.91688C2.99467 4.32981 3.78599 4 4.61111 4H17.8333C18.6585 4 19.4498 4.32981 20.0332 4.91688C20.6167 5.50395 20.9444 6.30019 20.9444 7.13043V18.8696C20.9444 19.6998 20.6167 20.496 20.0332 21.0831C19.4498 21.6702 18.6585 22 17.8333 22H4.61111C3.78599 22 2.99467 21.6702 2.41122 21.0831C1.82778 20.496 1.5 19.6998 1.5 18.8696ZM28.2058 5.15983L21.9836 10.7367C21.9015 10.81 21.8359 10.8999 21.7908 11.0005C21.7458 11.1011 21.7224 11.2102 21.7222 11.3205V14.1035C21.7224 14.2138 21.7458 14.3229 21.7908 14.4235C21.8359 14.5241 21.9015 14.614 21.9836 14.6873L28.2058 20.2642C28.3179 20.3643 28.4564 20.4298 28.6046 20.4526C28.7528 20.4754 28.9044 20.4546 29.0411 20.3928C29.1779 20.3309 29.2939 20.2306 29.3753 20.104C29.4567 19.9773 29.5 19.8296 29.5 19.6788V5.74522C29.5 5.59436 29.4567 5.44671 29.3753 5.32003C29.2939 5.19335 29.1779 5.09305 29.0411 5.0312C28.9044 4.96935 28.7528 4.94859 28.6046 4.9714C28.4564 4.99422 28.3179 5.05966 28.2058 5.15983Z" stroke="#00F6BF" stroke-width="2" stroke-linecap="round" stroke-linejoin="round"/>
</svg>
