<svg width="32" height="32" viewBox="0 0 32 32" fill="none" xmlns="http://www.w3.org/2000/svg">
<g clip-path="url(#clip0_406_128)">
<path d="M24.5334 28.8L23.8379 29.6085C24.0405 29.7821 24.3008 29.8734 24.5675 29.8645L24.5334 28.8ZM22.2592 25.1477C22.0838 24.9256 21.8274 24.7823 21.5463 24.7493C21.2653 24.7163 20.9826 24.7963 20.7606 24.9717C20.5385 25.1471 20.3952 25.4035 20.3622 25.6846C20.3292 25.9656 20.4092 26.2483 20.5846 26.4704L22.2592 25.1477ZM23.1083 24.273L22.7371 23.2746C22.7228 23.2794 22.7086 23.2844 22.6944 23.2896L23.1083 24.273ZM19.4006 25.3738L19.2214 24.32L19.2043 24.3221L19.4006 25.3717V25.3738ZM12.7787 25.3482L12.576 26.3936L12.5824 26.3957L12.7787 25.3482ZM7.15308 23.3792L6.56002 24.2645C6.58284 24.2804 6.60633 24.2954 6.63042 24.3093L7.15308 23.3792ZM6.92268 23.2512L7.51362 22.3637C7.47666 22.3392 7.43818 22.3172 7.39842 22.2976L6.92268 23.2512ZM6.82028 23.1744L7.57335 22.4192C7.50364 22.3496 7.42467 22.2901 7.33868 22.2421L6.82028 23.1744ZM11.4155 26.417C11.5909 26.195 11.6709 25.9123 11.6379 25.6313C11.6049 25.3502 11.4616 25.0938 11.2395 24.9184C11.0174 24.743 10.7348 24.663 10.4537 24.696C10.1726 24.729 9.91621 24.8723 9.74082 25.0944L11.4155 26.417ZM7.46668 28.8L7.43255 29.8666C7.70427 29.8753 7.96906 29.7799 8.17282 29.6L7.46668 28.8ZM1.06668 23.9936H1.5848e-05C-0.000295633 24.0507 0.00398481 24.1078 0.0128158 24.1642L1.06668 23.9936ZM4.74882 5.88584L4.10882 5.0325C3.94595 5.15498 3.82158 5.32155 3.75042 5.5125L4.74882 5.88584ZM11.9339 3.19997L12.9963 3.0997C12.9718 2.83924 12.8524 2.59688 12.6608 2.4187C12.4693 2.24052 12.2189 2.13895 11.9574 2.1333L11.9339 3.19997ZM11.1275 5.9861C11.1544 6.26787 11.2921 6.52742 11.5103 6.70765C11.7285 6.88789 12.0095 6.97405 12.2912 6.94717C12.573 6.92029 12.8325 6.78259 13.0128 6.56435C13.193 6.3461 13.2792 6.0652 13.2523 5.78344L11.1275 5.9861ZM18.6496 5.8517C18.6137 6.13234 18.6907 6.41575 18.8638 6.63959C19.0368 6.86344 19.2917 7.00938 19.5723 7.0453C19.8529 7.08123 20.1363 7.00421 20.3602 6.83117C20.584 6.65814 20.73 6.40327 20.7659 6.12264L18.6496 5.8517ZM20.0662 3.19997L20.0427 2.1333C19.7875 2.13887 19.5427 2.23579 19.3528 2.40646C19.163 2.57713 19.0406 2.81024 19.008 3.06344L20.0662 3.19997ZM27.2512 5.88584L28.2496 5.5125C28.1785 5.32155 28.0541 5.15498 27.8912 5.0325L27.2512 5.88584ZM30.9334 23.9936L31.9872 24.1642C31.9961 24.1078 32.0004 24.0507 32 23.9936H30.9334ZM13.8262 18.7733L12.7595 18.7562V18.7733H13.8262ZM24.5334 28.8L25.2288 27.9914L25.2246 27.9872C25.1923 27.9613 25.161 27.9343 25.1307 27.9061C24.7438 27.5712 24.3626 27.2298 23.9872 26.8821C23.2939 26.2464 22.5792 25.5552 22.2592 25.1477L20.5846 26.4704C21.0283 27.0336 21.871 27.8357 22.543 28.4544C22.9595 28.837 23.3812 29.2139 23.808 29.585L23.8294 29.6021L23.8358 29.6064L24.5334 28.8ZM25.4635 21.8752C24.4822 22.5216 23.5563 22.9696 22.7371 23.2746L23.4795 25.2736C24.5897 24.8557 25.6489 24.3132 26.6368 23.6565L25.4635 21.8752ZM22.6966 23.2896C21.5817 23.7663 20.4156 24.1128 19.2214 24.3221L19.5798 26.4256C20.9344 26.1886 22.2573 25.7964 23.5222 25.2565L22.6966 23.2896ZM19.2043 24.3242C17.1443 24.7031 15.0317 24.6944 12.975 24.2986L12.5824 26.3957C14.8986 26.84 17.2774 26.8487 19.5968 26.4213L19.2043 24.3242ZM12.9814 24.3008C11.7609 24.0619 10.5648 23.712 9.40802 23.2554L8.63148 25.2416C9.72375 25.6682 11.0422 26.0992 12.576 26.3936L12.9814 24.3008ZM9.40802 23.2554C8.81211 23.0267 8.23261 22.7572 7.67362 22.449L6.63042 24.3093C7.32588 24.6997 8.01282 25.0005 8.63148 25.2416L9.40802 23.2554ZM7.74402 22.4917C7.67069 22.4424 7.59366 22.4011 7.51362 22.3637C7.47095 22.3424 7.49015 22.3466 7.51362 22.3637L6.32962 24.1386C6.40322 24.1874 6.48022 24.2309 6.56002 24.2688C6.60482 24.2901 6.58562 24.2837 6.56002 24.2645L7.74615 22.4938L7.74402 22.4917ZM7.39842 22.2976C7.46267 22.3297 7.52165 22.3714 7.57335 22.4213L6.06508 23.9296C6.11415 23.9786 6.23788 24.1002 6.44482 24.2069L7.39842 22.2976ZM7.33868 22.2421C7.13548 22.1296 6.93625 22.0101 6.74135 21.8837L6.71788 21.8666C6.71717 21.8666 6.71859 21.8666 6.71788 21.8666L6.10348 22.7413L5.49335 23.6138L5.49548 23.616L5.49975 23.6202L5.51468 23.6288L5.55948 23.6586L5.71948 23.7632C5.85602 23.8485 6.05228 23.968 6.30188 24.1066L7.33868 22.2421ZM9.74082 25.0965C9.41655 25.5082 8.69762 26.2165 8.00642 26.865C7.62804 27.2188 7.24543 27.5679 6.85868 27.9125L6.78615 27.9786L6.76482 27.9957L6.76268 28H6.76055L7.46668 28.8L8.17282 29.6L8.17495 29.5978L8.18135 29.5936L8.20268 29.5744L8.27948 29.5061C8.67771 29.1488 9.0724 28.7875 9.46348 28.4224C10.1355 27.7909 10.9739 26.9781 11.4155 26.417L9.74082 25.0944V25.0965ZM7.50082 27.7333C5.01335 27.6544 3.70775 26.6218 2.99948 25.6853C2.60553 25.1623 2.31582 24.5684 2.14615 23.936C2.13587 23.8964 2.12662 23.8566 2.11842 23.8165V23.8208L1.06668 23.9936C0.0128159 24.1642 0.0128159 24.1621 0.0149492 24.1642V24.177C0.0305507 24.2682 0.0504844 24.3587 0.0746825 24.448C0.313796 25.3608 0.72905 26.2182 1.29708 26.9717C2.37442 28.3946 4.26882 29.7664 7.43255 29.8666L7.50082 27.7333ZM2.13335 23.9936C2.13335 20.0106 3.02935 15.5882 3.94028 12.1237C4.42361 10.2888 4.97582 8.47278 5.59575 6.67944C5.6426 6.54689 5.69024 6.41462 5.73868 6.28264L5.74722 6.2613L4.74882 5.88584L3.74828 5.5125L3.74615 5.52104L3.73762 5.5445C3.68481 5.68614 3.63361 5.82837 3.58402 5.97117C2.94482 7.81856 2.37553 9.6894 1.87735 11.5797C0.945083 15.1104 1.5848e-05 19.7397 1.5848e-05 23.9936H2.13335ZM5.38882 6.73917C7.09548 5.45917 8.75308 4.8405 9.97548 4.54184C10.5774 4.39508 11.1916 4.30368 11.8102 4.26877C11.845 4.26748 11.8798 4.26677 11.9147 4.26664L11.9339 3.19997L11.9574 2.1333H11.9467C11.9268 2.13297 11.9069 2.13297 11.887 2.1333H11.7419C11.5709 2.13951 11.4002 2.15089 11.2299 2.16744C10.6367 2.22491 10.0485 2.32545 9.46988 2.46824C7.52821 2.95047 5.70446 3.82135 4.10882 5.02824L5.38882 6.7349V6.73917ZM10.8715 3.30024L11.1275 5.9861L13.2523 5.78344L12.9963 3.0997L10.8715 3.30024ZM20.7659 6.12264L21.1243 3.3365L19.008 3.06344L18.6496 5.8517L20.7659 6.12264ZM20.0662 3.19997L20.0875 4.26664H20.0854C20.1202 4.26492 20.1551 4.26492 20.1899 4.26664C20.271 4.2709 20.4032 4.2773 20.5718 4.29437C20.9131 4.32424 21.4123 4.39464 22.0246 4.54397C23.6861 4.95829 25.2464 5.70505 26.6112 6.73917L27.8912 5.0325C26.2956 3.82556 24.4718 2.95468 22.5302 2.4725C21.9516 2.32897 21.3634 2.22773 20.7702 2.16957C20.5311 2.14732 20.2913 2.13522 20.0512 2.1333H20.0427L20.0662 3.19997ZM27.2512 5.88584L26.2507 6.25704L26.2528 6.26344L26.2614 6.28264L26.2891 6.36157L26.4022 6.67944C27.0227 8.47277 27.5757 10.2888 28.0598 12.1237C28.9728 15.5882 29.8667 20.0106 29.8667 23.9936H32C32 19.7397 31.0528 15.1104 30.1227 11.5797C29.6244 9.68944 29.0551 7.8186 28.416 5.97117C28.3761 5.85859 28.3356 5.74623 28.2944 5.6341L28.2624 5.5445L28.2539 5.52317L28.2518 5.51464L27.2491 5.88584H27.2512ZM30.9334 23.9936L29.8816 23.8229V23.8165L29.8774 23.8336L29.856 23.9338C29.8304 24.0298 29.792 24.1749 29.7259 24.3541C29.5936 24.7168 29.3696 25.1989 29.0006 25.6853C28.2923 26.6218 26.9867 27.6544 24.4992 27.7333L24.5675 29.8666C27.7312 29.7664 29.6235 28.3946 30.703 26.9738C31.2712 26.2196 31.6864 25.3616 31.9254 24.448C31.9463 24.3646 31.9648 24.2807 31.9808 24.1962L31.9851 24.1749V24.1664C31.9851 24.1642 31.9851 24.1621 30.9334 23.9936ZM11.2192 14.8693C9.08162 14.8693 7.54348 16.7189 7.54348 18.7733H9.67682C9.67682 17.7109 10.4384 17.0026 11.2192 17.0026V14.8693ZM7.54348 18.7733C7.54348 20.8362 9.11362 22.6773 11.2192 22.6773V20.544C10.4576 20.544 9.67682 19.8314 9.67682 18.7733H7.54348ZM11.2192 22.6773C13.3526 22.6773 14.8928 20.8298 14.8928 18.7733H12.7595C12.7595 19.84 11.9979 20.544 11.2192 20.544V22.6773ZM14.8907 18.7946C14.9248 16.7082 13.3398 14.8693 11.2192 14.8693L11.2171 17.0048C12.0107 17.0048 12.7744 17.7258 12.7574 18.7584L14.8907 18.7946ZM20.5504 14.8693C18.4128 14.8714 16.8747 16.721 16.8747 18.7754H19.008C19.008 17.713 19.7696 17.0048 20.5504 17.0048V14.8714V14.8693ZM16.8747 18.7776C16.8747 20.8405 18.4448 22.6816 20.5504 22.6816V20.5482C19.7888 20.5482 19.008 19.8357 19.008 18.7776H16.8747ZM20.5504 22.6816C22.6838 22.6816 24.224 20.8341 24.224 18.7776H22.0907C22.0907 19.8442 21.3291 20.5482 20.5504 20.5482V22.6816ZM24.224 18.7776C24.224 16.7232 22.6859 14.8714 20.5504 14.8714V17.0048C21.3291 17.0048 22.0907 17.7152 22.0907 18.7776H24.224ZM7.97868 9.47197C11.0571 7.79304 13.5659 7.0101 16.0064 7.00797C18.4491 7.00797 20.9515 7.78664 24.0235 9.46984L25.0475 7.60104C21.8006 5.8197 18.9355 4.8725 16.0064 4.87464C13.0774 4.87464 10.2102 5.82397 6.95895 7.5989L7.97868 9.47197Z" fill="white"/>
</g>
<defs>
<clipPath id="clip0_406_128">
<rect width="32" height="32" fill="white"/>
</clipPath>
</defs>
</svg>
