<svg width="158" height="157" viewBox="0 0 158 157" fill="none" xmlns="http://www.w3.org/2000/svg">
<g clip-path="url(#clip0_508_10)">
<rect x="-0.000244141" y="0.28418" width="56" height="18" fill="#02A37F"/>
<rect x="158" y="101.284" width="56" height="18" transform="rotate(90 158 101.284)" fill="#02A37F"/>
<path d="M56.2835 0.28399L156.693 100.693L156.693 157.262L-0.284638 0.284149L56.2835 0.28399Z" fill="#00F6BF"/>
<path d="M65.2289 42.7221L68.6782 46.1714L66.5399 48.3097L60.8124 42.5821L69.7219 33.6726L75.3858 39.3365L73.2603 41.462L69.8746 38.0764L68.64 39.311L71.7075 42.3785L69.6073 44.4786L66.5399 41.4111L65.2289 42.7221ZM85.6211 49.5717L76.7115 58.4813L74.4459 56.2157L79.2444 51.4173L73.5041 52.8301L73.275 52.601L74.6878 46.8861L69.9021 51.6718L67.6238 49.3935L76.5333 40.484L78.8116 42.7623L77.2715 48.8335L83.3555 47.3062L85.6211 49.5717ZM91.2437 63.7985C91.5492 64.9864 91.2564 66.0258 90.3655 66.9168C89.5764 67.7059 88.6727 68.0666 87.6544 67.9987C86.6362 67.9308 85.6731 67.4429 84.7652 66.535L81.0105 62.7802L89.92 53.8707L93.4329 57.3836C94.3239 58.2745 94.8075 59.2164 94.8839 60.2092C94.9688 61.1935 94.6209 62.0759 93.8402 62.8566C93.0935 63.6033 92.228 63.9172 91.2437 63.7985ZM91.3328 59.3564L90.1618 58.1854L88.7618 59.5855L89.9327 60.7565C90.1364 60.9601 90.3655 61.0704 90.6201 61.0874C90.8916 61.1044 91.1377 61.0026 91.3583 60.7819C91.5704 60.5698 91.6722 60.3322 91.6637 60.0692C91.6553 59.8061 91.5449 59.5685 91.3328 59.3564ZM86.738 64.4349C86.9671 64.664 87.2217 64.7827 87.5017 64.7912C87.7902 64.7912 88.0448 64.6809 88.2654 64.4603C88.4945 64.2312 88.6048 63.9766 88.5963 63.6966C88.5878 63.4166 88.469 63.1621 88.2399 62.933L86.8271 61.5202L85.3252 63.0221L86.738 64.4349ZM93.3128 75.0826L94.6365 70.6532L93.8219 69.8386L90.9454 72.7152L88.6671 70.4369L97.5767 61.5273L101.14 65.0911C102.048 65.9991 102.515 67.0512 102.541 68.2477C102.583 69.4441 102.159 70.4878 101.268 71.3787C100.733 71.9133 100.105 72.2697 99.384 72.4479C98.6713 72.6176 97.95 72.6006 97.2203 72.397L95.7566 77.5263L93.3128 75.0826ZM97.7548 65.9057L95.7566 67.904L97.0166 69.1641C97.2882 69.4526 97.6064 69.5926 97.9712 69.5841C98.3361 69.5756 98.667 69.4229 98.964 69.1259C99.261 68.8289 99.4137 68.498 99.4222 68.1331C99.4307 67.7682 99.2949 67.4458 99.0149 67.1658L97.7548 65.9057ZM100.977 78.4697L104.426 81.9189L102.287 84.0572L96.5599 78.3297L105.469 69.4201L111.133 75.084L109.008 77.2096L105.622 73.824L104.388 75.0586L107.455 78.126L105.355 80.2261L102.287 77.1587L100.977 78.4697ZM105.548 87.3176L111.581 75.5315L114.076 78.0262L109.672 85.892L117.55 81.5009L120.045 83.9956L108.259 90.0286L105.548 87.3176ZM116.252 93.7457L119.702 97.1949L117.563 99.3332L111.836 93.6057L120.745 84.6961L126.409 90.36L124.284 92.4856L120.898 89.1L119.664 90.3346L122.731 93.402L120.631 95.5021L117.563 92.4347L116.252 93.7457Z" fill="#071A23"/>
</g>
<defs>
<clipPath id="clip0_508_10">
<rect width="158" height="157" fill="white"/>
</clipPath>
</defs>
</svg>
